<svg width="32" height="32" viewBox="0 0 32 32" fill="none" xmlns="http://www.w3.org/2000/svg">
  <rect width="32" height="32" rx="8" fill="#0f1117"/>
  <ellipse cx="16" cy="18" rx="7" ry="4" fill="#00c896"/>
  <ellipse cx="22" cy="16" rx="4" ry="3" fill="#00c896"/>
  <path d="M9 18 L4 14 M9 18 L4 18 M9 18 L4 22" stroke="#00c896" stroke-width="1.5" stroke-linecap="round"/>
  <path d="M24 13 L28 10 M28 10 L30 8 M28 10 L26 8" stroke="#00c896" stroke-width="1.2" stroke-linecap="round"/>
  <path d="M24 19 L28 22 M28 22 L30 24 M28 22 L26 24" stroke="#00c896" stroke-width="1.2" stroke-linecap="round"/>
  <path d="M14 21 L13 26 M16 22 L16 27 M18 22 L19 27 M20 21 L21 26" stroke="#00c896" stroke-width="1" stroke-linecap="round" opacity="0.7"/>
  <path d="M23 13 L30 8 M23 12 L31 11" stroke="#00c896" stroke-width="0.8" stroke-linecap="round" opacity="0.8"/>
  <circle cx="23" cy="15" r="1.2" fill="#0f1117"/>
  <circle cx="23" cy="15" r="0.5" fill="#00c896"/>
</svg>